<?xml version="1.0" encoding="UTF-8"?>
<svg xmlns="http://www.w3.org/2000/svg" xmlns:xlink="http://www.w3.org/1999/xlink" width="50px" height="52px" viewBox="0 0 50 52" version="1.1">
<g id="surface1">
<path style=" stroke:none;fill-rule:nonzero;fill:rgb(100%,17.647059%,12.54902%);fill-opacity:1;" d="M 49.882812 12.082031 C 49.902344 12.144531 49.910156 12.214844 49.910156 12.285156 L 49.910156 23.214844 C 49.910156 23.496094 49.757812 23.761719 49.507812 23.902344 L 40.25 29.183594 L 40.25 39.644531 C 40.25 39.933594 40.097656 40.195312 39.847656 40.339844 L 20.527344 51.355469 C 20.480469 51.382812 20.433594 51.398438 20.386719 51.414062 C 20.367188 51.417969 20.347656 51.433594 20.332031 51.4375 C 20.195312 51.472656 20.054688 51.472656 19.917969 51.4375 C 19.894531 51.429688 19.878906 51.417969 19.855469 51.410156 C 19.808594 51.394531 19.765625 51.378906 19.722656 51.355469 L 0.402344 40.339844 C 0.152344 40.195312 0 39.933594 0 39.644531 L 0 6.871094 C 0 6.800781 0.0117188 6.730469 0.0273438 6.660156 C 0.0351562 6.636719 0.0507812 6.621094 0.0585938 6.597656 C 0.0703125 6.550781 0.0859375 6.511719 0.105469 6.472656 C 0.121094 6.449219 0.144531 6.425781 0.160156 6.402344 C 0.183594 6.371094 0.207031 6.335938 0.234375 6.308594 C 0.257812 6.285156 0.285156 6.269531 0.3125 6.246094 C 0.34375 6.222656 0.371094 6.199219 0.402344 6.179688 L 10.0625 0.667969 C 10.3125 0.527344 10.617188 0.527344 10.867188 0.667969 L 20.527344 6.179688 C 20.558594 6.199219 20.589844 6.222656 20.617188 6.246094 C 20.644531 6.269531 20.671875 6.285156 20.695312 6.308594 C 20.722656 6.335938 20.746094 6.371094 20.769531 6.402344 C 20.785156 6.425781 20.808594 6.449219 20.824219 6.472656 C 20.847656 6.511719 20.859375 6.550781 20.875 6.597656 C 20.882812 6.621094 20.894531 6.636719 20.902344 6.660156 C 20.921875 6.730469 20.929688 6.800781 20.929688 6.871094 L 20.929688 27.34375 L 28.980469 22.753906 L 28.980469 12.285156 C 28.980469 12.214844 28.988281 12.144531 29.007812 12.082031 C 29.015625 12.054688 29.027344 12.035156 29.035156 12.011719 C 29.050781 11.96875 29.066406 11.925781 29.089844 11.886719 C 29.105469 11.863281 29.125 11.839844 29.144531 11.816406 C 29.167969 11.785156 29.1875 11.753906 29.214844 11.722656 C 29.238281 11.699219 29.269531 11.683594 29.292969 11.664062 C 29.324219 11.640625 29.347656 11.613281 29.382812 11.597656 L 39.042969 6.085938 C 39.292969 5.945312 39.597656 5.945312 39.847656 6.085938 L 49.507812 11.597656 C 49.542969 11.613281 49.566406 11.640625 49.597656 11.664062 C 49.621094 11.683594 49.652344 11.699219 49.675781 11.722656 C 49.703125 11.753906 49.722656 11.785156 49.746094 11.816406 C 49.765625 11.839844 49.789062 11.863281 49.800781 11.886719 C 49.824219 11.925781 49.839844 11.96875 49.855469 12.011719 C 49.863281 12.035156 49.878906 12.054688 49.882812 12.082031 Z M 48.300781 22.753906 L 48.300781 13.667969 L 44.917969 15.59375 L 40.25 18.257812 L 40.25 27.34375 Z M 38.640625 39.183594 L 38.640625 30.09375 L 34.046875 32.691406 L 20.929688 40.109375 L 20.929688 49.285156 Z M 1.609375 8.25 L 1.609375 39.183594 L 19.320312 49.285156 L 19.320312 40.113281 L 10.066406 34.925781 L 10.058594 34.917969 C 10.027344 34.902344 10.003906 34.878906 9.972656 34.855469 C 9.949219 34.832031 9.917969 34.816406 9.898438 34.796875 L 9.894531 34.792969 C 9.871094 34.769531 9.851562 34.738281 9.832031 34.710938 C 9.808594 34.683594 9.785156 34.660156 9.769531 34.632812 L 9.769531 34.628906 C 9.75 34.597656 9.738281 34.566406 9.726562 34.527344 C 9.714844 34.5 9.695312 34.472656 9.6875 34.441406 C 9.675781 34.402344 9.675781 34.363281 9.671875 34.324219 C 9.667969 34.292969 9.660156 34.261719 9.660156 34.234375 L 9.660156 12.839844 L 4.988281 10.175781 Z M 10.464844 2.28125 L 2.417969 6.871094 L 10.464844 11.460938 L 18.511719 6.871094 Z M 14.652344 30.925781 L 19.320312 28.261719 L 19.320312 8.25 L 15.941406 10.175781 L 11.269531 12.839844 L 11.269531 32.851562 Z M 39.445312 7.699219 L 31.398438 12.285156 L 39.445312 16.878906 L 47.492188 12.285156 Z M 38.640625 18.257812 L 33.972656 15.59375 L 30.589844 13.667969 L 30.589844 22.753906 L 35.261719 25.414062 L 38.640625 27.34375 Z M 20.121094 38.730469 L 31.925781 32.054688 L 37.828125 28.71875 L 29.785156 24.132812 L 20.527344 29.414062 L 12.089844 34.226562 Z M 20.121094 38.730469 "/>
</g>
</svg>
